<svg width="25" height="24" viewBox="0 0 25 24" fill="none" xmlns="http://www.w3.org/2000/svg">
<path d="M12.6667 22.75C6.73675 22.75 1.91675 17.93 1.91675 12C1.91675 9.64 2.66675 7.4 4.08675 5.52C4.33675 5.19 4.80675 5.13 5.13675 5.38C5.46675 5.63 5.53675 6.1 5.28675 6.43C4.06675 8.04 3.41675 9.97 3.41675 12C3.41675 17.1 7.56675 21.25 12.6667 21.25C17.7667 21.25 21.9167 17.1 21.9167 12C21.9167 6.9 17.7667 2.75 12.6667 2.75C12.2567 2.75 11.9167 2.41 11.9167 2C11.9167 1.59 12.2567 1.25 12.6667 1.25C18.5967 1.25 23.4167 6.07 23.4167 12C23.4167 17.93 18.5967 22.75 12.6667 22.75Z" fill="white"/>
<path d="M12.6667 19.75C8.39675 19.75 4.91675 16.27 4.91675 12C4.91675 11.59 5.25675 11.25 5.66675 11.25C6.07675 11.25 6.41675 11.59 6.41675 12C6.41675 15.45 9.21675 18.25 12.6667 18.25C16.1167 18.25 18.9167 15.45 18.9167 12C18.9167 8.55 16.1167 5.75 12.6667 5.75C12.2567 5.75 11.9167 5.41 11.9167 5C11.9167 4.59 12.2567 4.25 12.6667 4.25C16.9367 4.25 20.4167 7.73 20.4167 12C20.4167 16.27 16.9367 19.75 12.6667 19.75Z" fill="white"/>
<path d="M12.6667 16.75C12.2567 16.75 11.9167 16.41 11.9167 16C11.9167 15.59 12.2567 15.25 12.6667 15.25C14.4567 15.25 15.9167 13.79 15.9167 12C15.9167 10.21 14.4567 8.75 12.6667 8.75C12.2567 8.75 11.9167 8.41 11.9167 8C11.9167 7.59 12.2567 7.25 12.6667 7.25C15.2867 7.25 17.4167 9.38 17.4167 12C17.4167 14.62 15.2867 16.75 12.6667 16.75Z" fill="white"/>
</svg>
